<?xml version="1.0" standalone="no"?>
<!DOCTYPE svg PUBLIC "-//W3C//DTD SVG 20010904//EN"
 "http://www.w3.org/TR/2001/REC-SVG-20010904/DTD/svg10.dtd">
<svg version="1.0" xmlns="http://www.w3.org/2000/svg"
 width="512.000000pt" height="512.000000pt" viewBox="0 0 512.000000 512.000000"
 preserveAspectRatio="xMidYMid meet">

<g transform="translate(0.000000,512.000000) scale(0.100000,-0.100000)"
fill="#000000" stroke="none">
<path d="M2410 5114 c-396 -47 -737 -215 -1004 -494 -212 -222 -357 -500 -418
-803 -33 -160 -32 -453 1 -607 81 -379 290 -723 573 -941 46 -35 108 -89 139
-119 73 -73 89 -120 89 -257 l0 -104 -35 -30 c-47 -42 -58 -88 -51 -218 4 -58
6 -124 5 -146 -2 -35 -2 -132 -1 -295 0 -25 -1 -102 -2 -172 -1 -114 1 -129
20 -154 34 -46 72 -68 126 -74 l51 -5 83 -135 c46 -74 98 -150 115 -169 31
-33 100 -70 130 -71 12 0 18 -14 22 -60 9 -79 26 -119 77 -174 56 -60 124 -86
230 -86 106 0 174 26 230 86 51 55 68 95 77 174 4 47 10 60 22 60 32 0 121 52
143 83 13 17 59 90 104 162 l80 130 52 5 c54 6 92 28 126 74 19 24 21 41 20
144 -2 156 -2 203 -1 330 0 59 -1 125 -2 147 -1 22 1 87 4 145 9 130 -2 177
-50 219 l-35 30 0 104 c0 68 5 119 16 150 20 59 78 124 169 192 296 218 515
551 600 908 37 158 41 208 17 237 -23 29 -83 33 -108 8 -9 -9 -26 -67 -39
-131 -29 -149 -66 -259 -127 -381 -113 -227 -242 -378 -470 -549 -84 -64 -134
-123 -175 -213 -24 -51 -28 -76 -33 -184 l-5 -125 -172 -3 -173 -2 0 278 c0
186 4 290 12 313 6 19 56 101 111 183 130 193 137 216 137 435 l0 167 44 12
c49 13 102 60 122 109 8 18 14 58 14 90 0 99 -55 179 -140 200 -31 8 -35 13
-38 44 -4 52 -21 85 -48 98 -37 16 -52 14 -79 -14 -19 -18 -25 -35 -25 -69 l0
-44 -121 -4 c-113 -3 -122 -5 -140 -27 -25 -30 -24 -62 2 -95 l20 -26 194 0
c163 0 196 -3 209 -16 19 -18 21 -75 4 -92 -17 -17 -1079 -17 -1096 0 -17 17
-15 74 4 92 13 13 46 16 209 16 l194 0 20 26 c26 33 27 65 2 95 -18 22 -27 24
-140 27 l-121 4 0 44 c0 34 -6 51 -25 69 -27 28 -42 30 -79 14 -27 -13 -44
-46 -48 -98 -3 -31 -7 -36 -38 -44 -85 -21 -140 -101 -140 -200 0 -32 6 -72
14 -90 20 -49 73 -96 121 -109 l43 -12 4 -185 c3 -136 8 -197 19 -227 9 -22
61 -108 116 -190 55 -82 105 -164 111 -183 8 -23 12 -127 12 -313 l0 -278
-172 2 -173 3 -5 125 c-5 108 -9 133 -33 184 -42 90 -94 153 -176 214 -318
233 -511 528 -593 905 -32 148 -32 427 1 577 123 570 560 1004 1139 1132 141
31 423 31 569 0 137 -30 257 -73 381 -137 404 -210 684 -595 761 -1046 16 -90
24 -117 41 -131 31 -25 72 -23 100 7 21 22 22 30 16 94 -4 39 -18 116 -31 171
-147 603 -637 1070 -1251 1190 -105 21 -366 34 -454 24z m528 -2092 c1 -84 -2
-170 -8 -191 -5 -20 -53 -102 -106 -180 -149 -221 -138 -183 -142 -543 l-3
-308 -119 0 -119 0 -3 308 c-4 360 6 324 -139 538 -51 75 -98 153 -105 173
-14 38 -20 342 -7 354 4 4 173 6 377 5 l371 -3 3 -153z m330 -1454 l-3 -83
-705 0 -705 0 -3 83 -3 82 711 0 711 0 -3 -82z m2 -318 l0 -80 -710 0 -710 0
0 80 0 80 710 0 710 0 0 -80z m-2 -317 l3 -83 -711 0 -710 0 0 78 c0 43 3 82
7 85 3 4 322 6 707 5 l701 -3 3 -82z m-231 -240 c-39 -72 -115 -187 -134 -205
l-25 -23 -318 0 -318 0 -25 23 c-19 18 -95 133 -134 205 -2 4 212 7 477 7 265
0 479 -3 477 -7z m-321 -424 c-9 -56 -21 -76 -59 -99 -45 -28 -150 -27 -195 0
-35 21 -62 72 -62 115 l0 25 161 0 162 0 -7 -41z"/>
<path d="M480 4220 c-25 -25 -26 -81 -2 -102 42 -39 263 -158 291 -158 51 0
86 63 61 109 -14 27 -270 171 -303 171 -15 0 -36 -9 -47 -20z"/>
<path d="M4435 4165 c-71 -41 -136 -82 -142 -92 -19 -25 -16 -57 8 -87 32 -41
66 -34 187 36 158 91 172 102 172 144 0 42 -29 74 -67 74 -16 0 -83 -31 -158
-75z"/>
<path d="M302 3557 c-27 -29 -28 -67 -3 -98 18 -23 25 -24 174 -27 125 -3 161
0 185 12 41 21 52 68 24 105 l-19 26 -170 3 c-166 2 -169 2 -191 -21z"/>
<path d="M4441 3554 c-23 -30 -25 -42 -12 -77 16 -41 54 -49 221 -45 146 3
153 4 171 27 26 32 24 73 -4 99 -22 21 -33 22 -189 22 l-167 0 -20 -26z"/>
<path d="M715 3039 c-117 -63 -231 -132 -242 -147 -23 -28 -16 -78 13 -101 15
-12 34 -21 43 -21 25 0 262 137 289 166 26 30 28 64 5 92 -27 32 -62 36 -108
11z"/>
<path d="M4320 3047 c-35 -18 -48 -61 -29 -95 15 -28 269 -182 300 -182 9 0
28 9 43 21 29 23 36 73 14 102 -15 19 -250 155 -282 162 -11 3 -32 -1 -46 -8z"/>
</g>
</svg>
