<?xml version="1.0" standalone="no"?>
<!DOCTYPE svg PUBLIC "-//W3C//DTD SVG 20010904//EN"
 "http://www.w3.org/TR/2001/REC-SVG-20010904/DTD/svg10.dtd">
<svg version="1.0" xmlns="http://www.w3.org/2000/svg"
 width="512.000000pt" height="512.000000pt" viewBox="0 0 512.000000 512.000000"
 preserveAspectRatio="xMidYMid meet">

<g transform="translate(0.000000,512.000000) scale(0.100000,-0.100000)"
fill="#000000" stroke="none">
<path d="M165 5095 c-45 -44 -35 -74 54 -171 150 -161 204 -267 205 -404 l1
-85 -97 -200 c-152 -313 -201 -517 -201 -835 0 -158 2 -185 26 -272 81 -303
293 -564 595 -733 63 -35 72 -44 77 -75 40 -242 116 -416 277 -629 43 -57 78
-108 78 -112 0 -12 -128 -57 -224 -79 -112 -26 -168 -63 -201 -135 -23 -52
-125 -453 -125 -493 0 -22 9 -65 20 -97 24 -70 26 -153 5 -253 -36 -170 43
-343 177 -388 41 -13 73 -15 191 -9 188 9 214 16 234 63 22 52 14 183 -15 238
-19 37 -34 52 -103 108 -20 16 -43 244 -30 298 28 117 117 191 256 213 22 3
47 8 55 10 10 3 22 -11 37 -44 13 -26 42 -67 65 -89 41 -39 605 -459 647 -481
32 -18 336 -14 375 4 71 34 88 131 36 202 -52 71 -120 113 -211 132 -55 12
-59 15 -185 149 -71 75 -151 160 -178 189 l-48 52 33 16 c64 34 129 109 230
266 l101 159 42 -1 c104 -1 474 -26 484 -33 7 -4 12 -20 12 -35 0 -53 31 -206
91 -451 33 -135 92 -400 130 -590 38 -189 77 -359 86 -377 21 -45 84 -100 130
-112 53 -15 418 -14 446 1 36 19 46 40 47 99 l0 56 58 6 c46 5 62 11 81 33 21
25 23 35 19 108 -5 89 -27 143 -75 187 -46 42 -80 59 -129 66 l-47 6 6 211 c5
196 25 401 47 502 24 107 78 212 237 461 82 129 86 134 151 168 260 136 398
390 418 767 9 168 -18 414 -65 600 l-17 67 72 65 c101 92 138 159 188 346 15
52 37 105 60 138 104 154 171 373 197 647 9 92 9 130 0 163 -15 53 -73 119
-126 143 -54 25 -138 24 -190 -1 -44 -21 -352 -337 -388 -397 -19 -33 -19 -33
-75 -25 -72 9 -150 9 -227 0 l-60 -7 -25 38 c-45 71 -342 373 -385 392 -79 36
-187 19 -248 -39 -64 -60 -80 -122 -66 -257 27 -281 94 -502 197 -654 27 -40
46 -86 66 -161 15 -58 41 -133 58 -167 38 -78 119 -167 192 -213 30 -19 56
-38 56 -42 0 -11 -88 -54 -138 -67 -59 -16 -182 -15 -277 3 -144 27 -323 39
-485 32 -415 -17 -674 -90 -1360 -384 -302 -129 -394 -162 -476 -169 -228 -20
-474 213 -568 539 -74 255 -52 487 75 795 94 226 127 348 130 473 3 96 -8 146
-52 238 -59 123 -187 245 -336 321 -55 28 -88 27 -118 -4z m3320 -427 c137
-135 286 -302 282 -317 -2 -9 -60 -87 -128 -174 l-124 -156 -24 47 c-59 117
-111 329 -127 518 -6 75 -5 83 15 103 31 31 57 26 106 -21z m1324 25 c23 -16
24 -19 17 -120 -7 -115 -35 -262 -67 -363 -28 -85 -70 -180 -80 -180 -8 0
-251 302 -257 320 -7 19 321 360 346 360 10 0 28 -7 41 -17z m-547 -444 c30
-11 65 -50 182 -198 80 -101 146 -186 146 -188 0 -13 -33 -133 -47 -173 -36
-97 -107 -174 -203 -219 -53 -25 -61 -26 -245 -26 -190 0 -190 0 -250 29 -72
36 -143 104 -174 169 -13 26 -34 87 -47 134 l-24 87 38 47 c20 26 87 110 147
187 107 137 111 141 165 156 67 19 256 15 312 -5z m76 -1046 c40 -175 47 -236
47 -448 0 -238 -9 -289 -76 -433 -47 -102 -149 -209 -248 -261 l-64 -34 57 69
c103 125 182 307 206 475 9 69 9 92 -1 110 -18 34 -40 48 -75 49 -47 0 -73
-35 -85 -114 -37 -266 -152 -445 -388 -605 -209 -142 -338 -271 -403 -400 -31
-63 -32 -72 -36 -202 -6 -192 37 -499 114 -827 29 -124 29 -122 6 -122 -22 0
-58 -32 -67 -60 -9 -29 11 -75 38 -88 12 -6 60 -12 107 -15 110 -5 139 -22
155 -95 l7 -32 -94 -2 c-172 -5 -197 -3 -213 13 -9 9 -41 145 -84 359 -39 190
-99 464 -135 610 -35 146 -70 301 -77 345 -17 110 -17 317 0 383 16 63 4 103
-35 121 -65 29 -104 -4 -128 -107 -9 -39 -16 -87 -16 -106 0 -33 -2 -36 -30
-36 -47 0 -385 22 -388 25 -2 1 6 18 17 36 12 19 21 44 21 56 0 28 -39 74 -65
75 -60 4 -68 -4 -240 -272 -92 -143 -178 -274 -192 -291 -46 -54 -93 -69 -417
-131 -344 -65 -395 -82 -482 -161 -35 -32 -64 -71 -90 -124 -37 -75 -39 -81
-39 -183 0 -58 3 -135 8 -171 l7 -66 -45 -6 c-75 -8 -105 -53 -79 -116 16 -38
43 -45 144 -38 94 6 120 -6 120 -57 l0 -34 -97 -4 c-108 -6 -135 1 -166 43
-28 39 -32 106 -12 209 20 104 16 185 -15 275 l-20 58 56 211 c32 125 62 218
72 227 9 9 62 27 117 40 116 27 254 91 309 142 34 33 38 41 32 69 -7 37 -44
94 -151 239 -41 55 -91 129 -111 164 -53 96 -103 246 -120 359 -8 56 -18 111
-24 123 -5 13 -37 36 -72 54 -221 110 -422 298 -514 480 -38 76 -77 186 -71
203 2 6 10 -7 17 -29 7 -22 30 -75 51 -118 130 -262 334 -433 559 -468 132
-20 212 3 650 188 599 254 809 320 1118 353 160 18 483 8 632 -19 135 -25 210
-26 303 -6 119 25 248 97 290 162 l19 28 111 -3 c62 -2 139 1 172 6 33 5 65
10 72 11 6 0 20 -36 31 -86z m-4031 5 c-3 -8 -6 -5 -6 6 -1 11 2 17 5 13 3 -3
4 -12 1 -19z m3463 -1493 c0 -3 -12 -24 -26 -47 -44 -69 -121 -230 -138 -288
-24 -81 -54 -288 -61 -425 -7 -147 -17 -253 -21 -240 -12 36 -68 373 -80 480
-18 171 -17 259 4 320 l17 50 145 77 c141 75 160 84 160 73z m-1855 -742 c76
-82 180 -192 232 -245 93 -95 96 -97 151 -104 32 -3 68 -13 82 -20 23 -12 17
-13 -59 -14 l-83 0 -282 207 c-266 196 -365 277 -354 289 6 5 131 31 159 33 8
1 77 -65 154 -146z m1848 -595 c9 -11 17 -26 17 -34 0 -26 -27 -14 -60 28
l-33 41 29 -7 c16 -4 37 -16 47 -28z"/>
</g>
</svg>
